<mxfile host="app.diagrams.net" modified="2024-03-25T03:19:52.367Z" agent="Mozilla/5.0 (Windows NT 10.0; Win64; x64) AppleWebKit/537.36 (KHTML, like Gecko) Chrome/122.0.0.0 Safari/537.36" etag="U0ulfhTC9EElzRdDXg_M" version="24.1.0" type="google">
  <diagram name="Trang-1" id="9rdFsYqtO7_l3Y-43fQ5">
    <mxGraphModel grid="1" page="1" gridSize="10" guides="1" tooltips="1" connect="1" arrows="1" fold="1" pageScale="1" pageWidth="827" pageHeight="1169" math="0" shadow="0">
      <root>
        <mxCell id="0" />
        <mxCell id="1" parent="0" />
        <mxCell id="skJfVYiPChnw5gceO_-I-8" style="edgeStyle=orthogonalEdgeStyle;rounded=0;orthogonalLoop=1;jettySize=auto;html=1;entryX=0.5;entryY=0;entryDx=0;entryDy=0;" edge="1" parent="1" source="skJfVYiPChnw5gceO_-I-1" target="skJfVYiPChnw5gceO_-I-2">
          <mxGeometry relative="1" as="geometry" />
        </mxCell>
        <mxCell id="skJfVYiPChnw5gceO_-I-1" value="Start" style="rounded=1;whiteSpace=wrap;html=1;" vertex="1" parent="1">
          <mxGeometry x="360" y="40" width="160" height="60" as="geometry" />
        </mxCell>
        <mxCell id="skJfVYiPChnw5gceO_-I-9" value="" style="edgeStyle=orthogonalEdgeStyle;rounded=0;orthogonalLoop=1;jettySize=auto;html=1;" edge="1" parent="1" source="skJfVYiPChnw5gceO_-I-2">
          <mxGeometry relative="1" as="geometry">
            <mxPoint x="440" y="280" as="targetPoint" />
          </mxGeometry>
        </mxCell>
        <mxCell id="skJfVYiPChnw5gceO_-I-2" value="Input a,b" style="shape=parallelogram;perimeter=parallelogramPerimeter;whiteSpace=wrap;html=1;fixedSize=1;" vertex="1" parent="1">
          <mxGeometry x="360" y="160" width="160" height="60" as="geometry" />
        </mxCell>
        <mxCell id="skJfVYiPChnw5gceO_-I-13" value="YES" style="edgeStyle=orthogonalEdgeStyle;rounded=0;orthogonalLoop=1;jettySize=auto;html=1;" edge="1" parent="1">
          <mxGeometry relative="1" as="geometry">
            <mxPoint x="440" y="360" as="sourcePoint" />
            <mxPoint x="440" y="400" as="targetPoint" />
          </mxGeometry>
        </mxCell>
        <mxCell id="skJfVYiPChnw5gceO_-I-21" value="&lt;b&gt;Prototype&lt;/b&gt;:float a chia b(float a,b)" style="text;html=1;align=center;verticalAlign=middle;whiteSpace=wrap;rounded=0;" vertex="1" parent="1">
          <mxGeometry x="10" y="40" width="110" height="40" as="geometry" />
        </mxCell>
        <mxCell id="skJfVYiPChnw5gceO_-I-22" value="Prototype: float choikeobuabao(float&amp;nbsp; keo,bua,bao)" style="text;html=1;align=center;verticalAlign=middle;whiteSpace=wrap;rounded=0;" vertex="1" parent="1">
          <mxGeometry x="15" y="760" width="110" height="80" as="geometry" />
        </mxCell>
        <mxCell id="skJfVYiPChnw5gceO_-I-23" value="K: keo&lt;div&gt;BU:bua&lt;/div&gt;&lt;div&gt;BA:bao&lt;/div&gt;" style="text;html=1;align=center;verticalAlign=middle;whiteSpace=wrap;rounded=0;" vertex="1" parent="1">
          <mxGeometry x="15" y="800" width="100" height="160" as="geometry" />
        </mxCell>
        <mxCell id="skJfVYiPChnw5gceO_-I-26" value="" style="edgeStyle=orthogonalEdgeStyle;rounded=0;orthogonalLoop=1;jettySize=auto;html=1;" edge="1" parent="1" source="skJfVYiPChnw5gceO_-I-24" target="skJfVYiPChnw5gceO_-I-25">
          <mxGeometry relative="1" as="geometry" />
        </mxCell>
        <mxCell id="skJfVYiPChnw5gceO_-I-24" value="Start" style="rounded=1;whiteSpace=wrap;html=1;" vertex="1" parent="1">
          <mxGeometry x="380" y="780" width="120" height="60" as="geometry" />
        </mxCell>
        <mxCell id="skJfVYiPChnw5gceO_-I-28" value="" style="edgeStyle=orthogonalEdgeStyle;rounded=0;orthogonalLoop=1;jettySize=auto;html=1;" edge="1" parent="1" source="skJfVYiPChnw5gceO_-I-25" target="skJfVYiPChnw5gceO_-I-27">
          <mxGeometry relative="1" as="geometry" />
        </mxCell>
        <mxCell id="skJfVYiPChnw5gceO_-I-25" value="Input P1,P2" style="shape=parallelogram;perimeter=parallelogramPerimeter;whiteSpace=wrap;html=1;fixedSize=1;" vertex="1" parent="1">
          <mxGeometry x="380" y="870" width="120" height="60" as="geometry" />
        </mxCell>
        <mxCell id="skJfVYiPChnw5gceO_-I-30" value="YES" style="edgeStyle=orthogonalEdgeStyle;rounded=0;orthogonalLoop=1;jettySize=auto;html=1;" edge="1" parent="1" source="skJfVYiPChnw5gceO_-I-27" target="skJfVYiPChnw5gceO_-I-29">
          <mxGeometry relative="1" as="geometry">
            <Array as="points">
              <mxPoint x="560" y="1030" />
              <mxPoint x="560" y="1030" />
            </Array>
          </mxGeometry>
        </mxCell>
        <mxCell id="skJfVYiPChnw5gceO_-I-32" value="NO" style="edgeStyle=orthogonalEdgeStyle;rounded=0;orthogonalLoop=1;jettySize=auto;html=1;" edge="1" parent="1" source="skJfVYiPChnw5gceO_-I-27" target="skJfVYiPChnw5gceO_-I-31">
          <mxGeometry relative="1" as="geometry" />
        </mxCell>
        <mxCell id="skJfVYiPChnw5gceO_-I-27" value="(P1=K&amp;amp;&amp;amp;P2=BA)&lt;div&gt;||(P1=BU&amp;amp;&amp;amp;P2=K)&lt;/div&gt;&lt;div&gt;||(P1=BA&amp;amp;&amp;amp;P2=BU)&lt;/div&gt;" style="rhombus;whiteSpace=wrap;html=1;" vertex="1" parent="1">
          <mxGeometry x="335" y="970" width="210" height="120" as="geometry" />
        </mxCell>
        <mxCell id="skJfVYiPChnw5gceO_-I-42" value="" style="edgeStyle=orthogonalEdgeStyle;rounded=0;orthogonalLoop=1;jettySize=auto;html=1;" edge="1" parent="1" source="skJfVYiPChnw5gceO_-I-29" target="skJfVYiPChnw5gceO_-I-41">
          <mxGeometry relative="1" as="geometry" />
        </mxCell>
        <mxCell id="skJfVYiPChnw5gceO_-I-29" value="Print P1 thang" style="shape=parallelogram;perimeter=parallelogramPerimeter;whiteSpace=wrap;html=1;fixedSize=1;" vertex="1" parent="1">
          <mxGeometry x="600" y="1000" width="120" height="60" as="geometry" />
        </mxCell>
        <mxCell id="skJfVYiPChnw5gceO_-I-34" value="YES" style="edgeStyle=orthogonalEdgeStyle;rounded=0;orthogonalLoop=1;jettySize=auto;html=1;" edge="1" parent="1" source="skJfVYiPChnw5gceO_-I-31" target="skJfVYiPChnw5gceO_-I-33">
          <mxGeometry relative="1" as="geometry" />
        </mxCell>
        <mxCell id="skJfVYiPChnw5gceO_-I-36" value="NO" style="edgeStyle=orthogonalEdgeStyle;rounded=0;orthogonalLoop=1;jettySize=auto;html=1;" edge="1" parent="1" source="skJfVYiPChnw5gceO_-I-31" target="skJfVYiPChnw5gceO_-I-35">
          <mxGeometry relative="1" as="geometry" />
        </mxCell>
        <mxCell id="skJfVYiPChnw5gceO_-I-31" value="(P1=K&amp;amp;&amp;amp;P2=K)&lt;div&gt;||(P1=BU&amp;amp;&amp;amp;P2=BU)&lt;/div&gt;&lt;div&gt;||(P1=BA&amp;amp;&amp;amp;P2=BA)&lt;/div&gt;" style="rhombus;whiteSpace=wrap;html=1;" vertex="1" parent="1">
          <mxGeometry x="320" y="1160" width="240" height="120" as="geometry" />
        </mxCell>
        <mxCell id="skJfVYiPChnw5gceO_-I-43" style="edgeStyle=orthogonalEdgeStyle;rounded=0;orthogonalLoop=1;jettySize=auto;html=1;entryX=0.5;entryY=1;entryDx=0;entryDy=0;" edge="1" parent="1" source="skJfVYiPChnw5gceO_-I-33" target="skJfVYiPChnw5gceO_-I-41">
          <mxGeometry relative="1" as="geometry" />
        </mxCell>
        <mxCell id="skJfVYiPChnw5gceO_-I-33" value="Print Hoa" style="shape=parallelogram;perimeter=parallelogramPerimeter;whiteSpace=wrap;html=1;fixedSize=1;" vertex="1" parent="1">
          <mxGeometry x="600" y="1190" width="120" height="60" as="geometry" />
        </mxCell>
        <mxCell id="skJfVYiPChnw5gceO_-I-38" value="YES" style="edgeStyle=orthogonalEdgeStyle;rounded=0;orthogonalLoop=1;jettySize=auto;html=1;" edge="1" parent="1" source="skJfVYiPChnw5gceO_-I-35" target="skJfVYiPChnw5gceO_-I-37">
          <mxGeometry relative="1" as="geometry" />
        </mxCell>
        <mxCell id="skJfVYiPChnw5gceO_-I-40" style="edgeStyle=orthogonalEdgeStyle;rounded=0;orthogonalLoop=1;jettySize=auto;html=1;entryX=0;entryY=0.75;entryDx=0;entryDy=0;" edge="1" parent="1" target="skJfVYiPChnw5gceO_-I-39">
          <mxGeometry relative="1" as="geometry">
            <mxPoint x="439.99999999999994" y="1470" as="sourcePoint" />
            <mxPoint x="475.45454545454544" y="1573.6363636363635" as="targetPoint" />
            <Array as="points">
              <mxPoint x="440" y="1520" />
              <mxPoint x="596" y="1520" />
            </Array>
          </mxGeometry>
        </mxCell>
        <mxCell id="skJfVYiPChnw5gceO_-I-35" value="(P1=K&amp;amp;&amp;amp;P2=BU)&lt;div&gt;||(P1=BU&amp;amp;&amp;amp;P2=BA)&lt;/div&gt;&lt;div&gt;||(P1=BA&amp;amp;&amp;amp;P2=K)&lt;/div&gt;" style="rhombus;whiteSpace=wrap;html=1;" vertex="1" parent="1">
          <mxGeometry x="320" y="1360" width="240" height="120" as="geometry" />
        </mxCell>
        <mxCell id="skJfVYiPChnw5gceO_-I-44" style="edgeStyle=orthogonalEdgeStyle;rounded=0;orthogonalLoop=1;jettySize=auto;html=1;" edge="1" parent="1" source="skJfVYiPChnw5gceO_-I-37">
          <mxGeometry relative="1" as="geometry">
            <mxPoint x="890" y="1220" as="targetPoint" />
          </mxGeometry>
        </mxCell>
        <mxCell id="skJfVYiPChnw5gceO_-I-37" value="Print P1 thua" style="shape=parallelogram;perimeter=parallelogramPerimeter;whiteSpace=wrap;html=1;fixedSize=1;" vertex="1" parent="1">
          <mxGeometry x="600" y="1390" width="120" height="60" as="geometry" />
        </mxCell>
        <mxCell id="skJfVYiPChnw5gceO_-I-39" value="Print loi cu phap" style="shape=parallelogram;perimeter=parallelogramPerimeter;whiteSpace=wrap;html=1;fixedSize=1;" vertex="1" parent="1">
          <mxGeometry x="590" y="1480" width="120" height="60" as="geometry" />
        </mxCell>
        <mxCell id="skJfVYiPChnw5gceO_-I-41" value="Stop" style="rounded=1;whiteSpace=wrap;html=1;" vertex="1" parent="1">
          <mxGeometry x="830" y="1000" width="120" height="60" as="geometry" />
        </mxCell>
        <mxCell id="skJfVYiPChnw5gceO_-I-54" value="NO" style="edgeStyle=orthogonalEdgeStyle;rounded=0;orthogonalLoop=1;jettySize=auto;html=1;entryX=0.5;entryY=0;entryDx=0;entryDy=0;" edge="1" parent="1" source="skJfVYiPChnw5gceO_-I-46" target="skJfVYiPChnw5gceO_-I-52">
          <mxGeometry relative="1" as="geometry" />
        </mxCell>
        <mxCell id="skJfVYiPChnw5gceO_-I-46" value="a&amp;gt;=0&amp;amp;&amp;amp;b&amp;gt;=0" style="rhombus;whiteSpace=wrap;html=1;" vertex="1" parent="1">
          <mxGeometry x="330" y="280" width="220" height="80" as="geometry" />
        </mxCell>
        <mxCell id="skJfVYiPChnw5gceO_-I-49" value="YES" style="edgeStyle=orthogonalEdgeStyle;rounded=0;orthogonalLoop=1;jettySize=auto;html=1;" edge="1" parent="1" source="skJfVYiPChnw5gceO_-I-47" target="skJfVYiPChnw5gceO_-I-48">
          <mxGeometry relative="1" as="geometry" />
        </mxCell>
        <mxCell id="skJfVYiPChnw5gceO_-I-55" value="NO" style="edgeStyle=orthogonalEdgeStyle;rounded=0;orthogonalLoop=1;jettySize=auto;html=1;" edge="1" parent="1" source="skJfVYiPChnw5gceO_-I-47" target="skJfVYiPChnw5gceO_-I-53">
          <mxGeometry relative="1" as="geometry" />
        </mxCell>
        <mxCell id="skJfVYiPChnw5gceO_-I-47" value="b!=0" style="rhombus;whiteSpace=wrap;html=1;" vertex="1" parent="1">
          <mxGeometry x="400" y="400" width="80" height="60" as="geometry" />
        </mxCell>
        <mxCell id="skJfVYiPChnw5gceO_-I-57" value="NO" style="edgeStyle=orthogonalEdgeStyle;rounded=0;orthogonalLoop=1;jettySize=auto;html=1;" edge="1" parent="1" source="skJfVYiPChnw5gceO_-I-48" target="skJfVYiPChnw5gceO_-I-51">
          <mxGeometry relative="1" as="geometry" />
        </mxCell>
        <mxCell id="skJfVYiPChnw5gceO_-I-48" value="a mod b =0" style="rhombus;whiteSpace=wrap;html=1;" vertex="1" parent="1">
          <mxGeometry x="400" y="490" width="80" height="80" as="geometry" />
        </mxCell>
        <mxCell id="skJfVYiPChnw5gceO_-I-61" style="edgeStyle=orthogonalEdgeStyle;rounded=0;orthogonalLoop=1;jettySize=auto;html=1;entryX=0;entryY=0.5;entryDx=0;entryDy=0;" edge="1" parent="1" source="skJfVYiPChnw5gceO_-I-50" target="skJfVYiPChnw5gceO_-I-58">
          <mxGeometry relative="1" as="geometry" />
        </mxCell>
        <mxCell id="skJfVYiPChnw5gceO_-I-50" value="Print a chia het cho b" style="shape=parallelogram;perimeter=parallelogramPerimeter;whiteSpace=wrap;html=1;fixedSize=1;" vertex="1" parent="1">
          <mxGeometry x="294" y="620" width="136" height="60" as="geometry" />
        </mxCell>
        <mxCell id="skJfVYiPChnw5gceO_-I-60" style="edgeStyle=orthogonalEdgeStyle;rounded=0;orthogonalLoop=1;jettySize=auto;html=1;" edge="1" parent="1" source="skJfVYiPChnw5gceO_-I-51" target="skJfVYiPChnw5gceO_-I-58">
          <mxGeometry relative="1" as="geometry" />
        </mxCell>
        <mxCell id="skJfVYiPChnw5gceO_-I-51" value="Print a khong chia het cho b" style="shape=parallelogram;perimeter=parallelogramPerimeter;whiteSpace=wrap;html=1;fixedSize=1;" vertex="1" parent="1">
          <mxGeometry x="470" y="620" width="140" height="60" as="geometry" />
        </mxCell>
        <mxCell id="skJfVYiPChnw5gceO_-I-62" style="edgeStyle=orthogonalEdgeStyle;rounded=0;orthogonalLoop=1;jettySize=auto;html=1;" edge="1" parent="1">
          <mxGeometry relative="1" as="geometry">
            <mxPoint x="370" y="730" as="targetPoint" />
            <mxPoint x="260" y="620" as="sourcePoint" />
            <Array as="points">
              <mxPoint x="260" y="621" />
              <mxPoint x="291" y="621" />
            </Array>
          </mxGeometry>
        </mxCell>
        <mxCell id="skJfVYiPChnw5gceO_-I-52" value="Print loi du lieu" style="shape=parallelogram;perimeter=parallelogramPerimeter;whiteSpace=wrap;html=1;fixedSize=1;" vertex="1" parent="1">
          <mxGeometry x="140" y="590" width="130" height="60" as="geometry" />
        </mxCell>
        <mxCell id="skJfVYiPChnw5gceO_-I-64" style="edgeStyle=orthogonalEdgeStyle;rounded=0;orthogonalLoop=1;jettySize=auto;html=1;entryX=1;entryY=0.75;entryDx=0;entryDy=0;" edge="1" parent="1" source="skJfVYiPChnw5gceO_-I-53" target="skJfVYiPChnw5gceO_-I-58">
          <mxGeometry relative="1" as="geometry">
            <mxPoint x="630" y="740" as="targetPoint" />
            <Array as="points">
              <mxPoint x="720" y="745" />
            </Array>
          </mxGeometry>
        </mxCell>
        <mxCell id="skJfVYiPChnw5gceO_-I-53" value="Print loi du lieu" style="shape=parallelogram;perimeter=parallelogramPerimeter;whiteSpace=wrap;html=1;fixedSize=1;" vertex="1" parent="1">
          <mxGeometry x="660" y="590" width="120" height="60" as="geometry" />
        </mxCell>
        <mxCell id="skJfVYiPChnw5gceO_-I-56" value="YES" style="edgeStyle=orthogonalEdgeStyle;rounded=0;orthogonalLoop=1;jettySize=auto;html=1;entryX=0.633;entryY=0;entryDx=0;entryDy=0;entryPerimeter=0;" edge="1" parent="1" source="skJfVYiPChnw5gceO_-I-48" target="skJfVYiPChnw5gceO_-I-50">
          <mxGeometry relative="1" as="geometry" />
        </mxCell>
        <mxCell id="skJfVYiPChnw5gceO_-I-58" value="Stop" style="rounded=1;whiteSpace=wrap;html=1;" vertex="1" parent="1">
          <mxGeometry x="390" y="700" width="120" height="60" as="geometry" />
        </mxCell>
      </root>
    </mxGraphModel>
  </diagram>
</mxfile>
